<mxfile host="app.diagrams.net" modified="2022-10-13T03:33:09.399Z" agent="5.0 (Windows NT 10.0; Win64; x64) AppleWebKit/537.36 (KHTML, like Gecko) Chrome/106.0.0.0 Safari/537.36 Edg/106.0.1370.42" etag="e_DcMeQKH-tvvD9vZxXp" version="20.4.0" type="github" pages="2">
  <diagram id="7LghVynFp6DC260twTb8" name="机器手监控-新">
    <mxGraphModel dx="2632" dy="557" grid="1" gridSize="10" guides="1" tooltips="1" connect="1" arrows="1" fold="1" page="1" pageScale="1" pageWidth="827" pageHeight="1169" background="#EEEEEE" math="0" shadow="0">
      <root>
        <mxCell id="0" />
        <mxCell id="1" parent="0" />
        <mxCell id="7k7wMy8wNWdYvGFk05Gw-22" value="银行" style="swimlane;childLayout=stackLayout;horizontal=1;startSize=30;horizontalStack=0;rounded=1;fontSize=14;fontStyle=0;strokeWidth=2;resizeParent=0;resizeLast=1;shadow=0;dashed=0;align=center;" parent="1" vertex="1">
          <mxGeometry x="860" y="667" width="220" height="138" as="geometry" />
        </mxCell>
        <mxCell id="7k7wMy8wNWdYvGFk05Gw-23" value="+ bankCode: string（银行编号） &#xa;+account: int（银行账号）&#xa;+accountId: int （交易账户id）" style="align=left;strokeColor=none;fillColor=none;spacingLeft=4;fontSize=12;verticalAlign=top;resizable=0;rotatable=0;part=1;rounded=1;" parent="7k7wMy8wNWdYvGFk05Gw-22" vertex="1">
          <mxGeometry y="30" width="220" height="108" as="geometry" />
        </mxCell>
        <mxCell id="7k7wMy8wNWdYvGFk05Gw-27" value="股票" style="swimlane;childLayout=stackLayout;horizontal=1;startSize=30;horizontalStack=0;rounded=1;fontSize=14;fontStyle=0;strokeWidth=2;resizeParent=0;resizeLast=1;shadow=0;dashed=0;align=center;" parent="1" vertex="1">
          <mxGeometry x="1110" y="672" width="230" height="133" as="geometry" />
        </mxCell>
        <mxCell id="7k7wMy8wNWdYvGFk05Gw-28" value="+tradingDirection:int(交易方向 0-买 1-卖)&#xa;+tradingPrice:decimal（交易价格）&#xa;+tradingQuantities:int(交易股数)&#xa;+stockCode:string(股票代码)" style="align=left;strokeColor=none;fillColor=none;spacingLeft=4;fontSize=12;verticalAlign=top;resizable=0;rotatable=0;part=1;rounded=1;" parent="7k7wMy8wNWdYvGFk05Gw-27" vertex="1">
          <mxGeometry y="30" width="230" height="103" as="geometry" />
        </mxCell>
        <mxCell id="7k7wMy8wNWdYvGFk05Gw-29" value="交易前" style="swimlane;childLayout=stackLayout;horizontal=1;startSize=30;horizontalStack=0;rounded=1;fontSize=14;fontStyle=0;strokeWidth=2;resizeParent=0;resizeLast=1;shadow=0;dashed=0;align=center;" parent="1" vertex="1">
          <mxGeometry x="860" y="840" width="240" height="180" as="geometry" />
        </mxCell>
        <mxCell id="7k7wMy8wNWdYvGFk05Gw-30" value="+tradingDetailId:int(交易详情id)&#xa;+tradingCommandId:int（交易指令id）&#xa;+time:int（放单时间戳,单位：毫秒）" style="align=left;strokeColor=none;fillColor=none;spacingLeft=4;fontSize=12;verticalAlign=top;resizable=0;rotatable=0;part=1;rounded=1;" parent="7k7wMy8wNWdYvGFk05Gw-29" vertex="1">
          <mxGeometry y="30" width="240" height="150" as="geometry" />
        </mxCell>
        <mxCell id="7k7wMy8wNWdYvGFk05Gw-32" value="交易后" style="swimlane;childLayout=stackLayout;horizontal=1;startSize=30;horizontalStack=0;rounded=1;fontSize=14;fontStyle=0;strokeWidth=2;resizeParent=0;resizeLast=1;shadow=0;dashed=0;align=center;" parent="1" vertex="1">
          <mxGeometry x="1120" y="840" width="470" height="180" as="geometry" />
        </mxCell>
        <mxCell id="7k7wMy8wNWdYvGFk05Gw-33" value="+startTime:int(机器手开始订单事件戳，单位：毫秒)&#xa;+endTime:int(机器手结束订单事件戳：单位：毫秒)&#xa;&#xa;status:int(放单状态，0- 已放单至银行 1-已匹配银行订单 2-未知 3-放单失败)&#xa; tradeFailureType:int(交易失败原因：1-购买力不足 2-持仓不足) &#xa;&#xa;ipAddress:string（机器手进行放单的服务IP地址）" style="align=left;strokeColor=none;fillColor=none;spacingLeft=4;fontSize=12;verticalAlign=top;resizable=0;rotatable=0;part=1;rounded=1;" parent="7k7wMy8wNWdYvGFk05Gw-32" vertex="1">
          <mxGeometry y="30" width="470" height="150" as="geometry" />
        </mxCell>
        <mxCell id="7k7wMy8wNWdYvGFk05Gw-38" value="交易后-旧版" style="swimlane;childLayout=stackLayout;horizontal=1;startSize=30;horizontalStack=0;rounded=1;fontSize=14;fontStyle=0;strokeWidth=2;resizeParent=0;resizeLast=1;shadow=0;dashed=0;align=center;" parent="1" vertex="1">
          <mxGeometry x="1620" y="840" width="520" height="180" as="geometry" />
        </mxCell>
        <mxCell id="7k7wMy8wNWdYvGFk05Gw-39" value="&#xa;+maxTime:int（最大耗时，单位：秒，机器手计算出来值，运营系统那边使用的的是自己算的）&#xa;+minTime:int（最小耗时，单位：秒，机器手计算出来值，运营系统那边使用的的是自己算的）&#xa;+orderTime:int（回单时间，时间戳，单位：毫秒，回单那一刻的时间点，&#xa;tapd文档上有写这个字段，但是库里面没有这个字段）" style="align=left;strokeColor=none;fillColor=none;spacingLeft=4;fontSize=12;verticalAlign=top;resizable=0;rotatable=0;part=1;rounded=1;" parent="7k7wMy8wNWdYvGFk05Gw-38" vertex="1">
          <mxGeometry y="30" width="520" height="150" as="geometry" />
        </mxCell>
        <mxCell id="SI9MnUn5migeiSi8WMFz-1" value="银行" style="swimlane;childLayout=stackLayout;horizontal=1;startSize=30;horizontalStack=0;rounded=1;fontSize=14;fontStyle=0;strokeWidth=2;resizeParent=0;resizeLast=1;shadow=0;dashed=0;align=center;" parent="1" vertex="1">
          <mxGeometry x="870" y="350" width="220" height="138" as="geometry" />
        </mxCell>
        <mxCell id="SI9MnUn5migeiSi8WMFz-2" value="+ bankCode: string（银行编号） &#xa;+accountId: int （交易账户id）" style="align=left;strokeColor=none;fillColor=none;spacingLeft=4;fontSize=12;verticalAlign=top;resizable=0;rotatable=0;part=1;rounded=1;" parent="SI9MnUn5migeiSi8WMFz-1" vertex="1">
          <mxGeometry y="30" width="220" height="108" as="geometry" />
        </mxCell>
        <mxCell id="SI9MnUn5migeiSi8WMFz-6" value="事件" style="swimlane;childLayout=stackLayout;horizontal=1;startSize=30;horizontalStack=0;rounded=1;fontSize=14;fontStyle=0;strokeWidth=2;resizeParent=0;resizeLast=1;shadow=0;dashed=0;align=center;" parent="1" vertex="1">
          <mxGeometry x="1120" y="353.5" width="310" height="131" as="geometry" />
        </mxCell>
        <mxCell id="SI9MnUn5migeiSi8WMFz-7" value="+  eventLevel:int(事件等级) &#xa;+ eventType:int(事件类型)&#xa;+message:string(事件详情信息) &#xa;+timestamp: string(事件发生时间戳 单位：毫秒)&#xa;&#xa;+ipAddress:string(事件发生服务器IP地址)&#xa;&#xa;" style="align=left;strokeColor=none;fillColor=none;spacingLeft=4;fontSize=12;verticalAlign=top;resizable=0;rotatable=0;part=1;rounded=1;" parent="SI9MnUn5migeiSi8WMFz-6" vertex="1">
          <mxGeometry y="30" width="310" height="101" as="geometry" />
        </mxCell>
        <object label=" 生命线调整" 生命线="生命线v0.1" id="f6DiLeIDeS20JckYswjK-1">
          <mxCell parent="0" />
        </object>
        <mxCell id="f6DiLeIDeS20JckYswjK-2" value="operation系统" style="shape=umlLifeline;perimeter=lifelinePerimeter;whiteSpace=wrap;html=1;container=1;collapsible=0;recursiveResize=0;outlineConnect=0;strokeColor=#909090;fontSize=18;fontColor=#1A1A1A;fillColor=#F5AB50;fontStyle=1;labelBackgroundColor=none;size=90;dashed=1;strokeWidth=3;rounded=1;" parent="f6DiLeIDeS20JckYswjK-1" vertex="1">
          <mxGeometry x="-910" y="230" width="220" height="890" as="geometry" />
        </mxCell>
        <mxCell id="f6DiLeIDeS20JckYswjK-35" value="" style="html=1;points=[];perimeter=orthogonalPerimeter;strokeColor=#909090;fontColor=#1A1A1A;fillColor=#F5AB50;rounded=1;" parent="f6DiLeIDeS20JckYswjK-2" vertex="1">
          <mxGeometry x="105" y="410" width="10" height="90" as="geometry" />
        </mxCell>
        <mxCell id="f6DiLeIDeS20JckYswjK-36" value="" style="html=1;points=[];perimeter=orthogonalPerimeter;strokeColor=#909090;fontColor=#1A1A1A;fillColor=#F5AB50;rounded=1;" parent="f6DiLeIDeS20JckYswjK-2" vertex="1">
          <mxGeometry x="105" y="570" width="10" height="100" as="geometry" />
        </mxCell>
        <mxCell id="f6DiLeIDeS20JckYswjK-5" value="机器手" style="shape=umlLifeline;perimeter=lifelinePerimeter;whiteSpace=wrap;html=1;container=1;collapsible=0;recursiveResize=0;outlineConnect=0;strokeColor=#909090;fontSize=18;fontColor=#1A1A1A;fillColor=#F5AB50;fontStyle=1;labelBackgroundColor=none;size=90;dashed=1;strokeWidth=3;rounded=1;" parent="f6DiLeIDeS20JckYswjK-1" vertex="1">
          <mxGeometry x="-580" y="230" width="220" height="890" as="geometry" />
        </mxCell>
        <mxCell id="f6DiLeIDeS20JckYswjK-38" value="" style="html=1;points=[];perimeter=orthogonalPerimeter;strokeColor=#909090;fontColor=#1A1A1A;fillColor=#F5AB50;rounded=1;" parent="f6DiLeIDeS20JckYswjK-5" vertex="1">
          <mxGeometry x="105" y="130" width="10" height="70" as="geometry" />
        </mxCell>
        <mxCell id="f6DiLeIDeS20JckYswjK-39" value="" style="html=1;points=[];perimeter=orthogonalPerimeter;strokeColor=#909090;fontColor=#1A1A1A;fillColor=#F5AB50;rounded=1;" parent="f6DiLeIDeS20JckYswjK-5" vertex="1">
          <mxGeometry x="105" y="300" width="10" height="40" as="geometry" />
        </mxCell>
        <mxCell id="f6DiLeIDeS20JckYswjK-8" value="redis" style="shape=umlLifeline;perimeter=lifelinePerimeter;whiteSpace=wrap;html=1;container=1;collapsible=0;recursiveResize=0;outlineConnect=0;strokeColor=#909090;fontSize=18;fontColor=#1A1A1A;fillColor=#F5AB50;fontStyle=1;labelBackgroundColor=none;size=90;dashed=1;strokeWidth=3;rounded=1;" parent="f6DiLeIDeS20JckYswjK-1" vertex="1">
          <mxGeometry x="-260" y="230" width="220" height="890" as="geometry" />
        </mxCell>
        <mxCell id="f6DiLeIDeS20JckYswjK-42" value="" style="html=1;points=[];perimeter=orthogonalPerimeter;labelBackgroundColor=none;strokeColor=#909090;fontSize=18;fontColor=#1A1A1A;fillColor=#F5AB50;rounded=1;" parent="f6DiLeIDeS20JckYswjK-8" vertex="1">
          <mxGeometry x="105" y="120" width="10" height="30" as="geometry" />
        </mxCell>
        <mxCell id="f6DiLeIDeS20JckYswjK-41" value="" style="html=1;points=[];perimeter=orthogonalPerimeter;strokeColor=#909090;fontColor=#1A1A1A;fillColor=#F5AB50;rounded=1;" parent="f6DiLeIDeS20JckYswjK-8" vertex="1">
          <mxGeometry x="105" y="415" width="10" height="80" as="geometry" />
        </mxCell>
        <mxCell id="f6DiLeIDeS20JckYswjK-11" value="es" style="shape=umlLifeline;perimeter=lifelinePerimeter;whiteSpace=wrap;html=1;container=1;collapsible=0;recursiveResize=0;outlineConnect=0;strokeColor=#909090;fontSize=18;fontColor=#1A1A1A;fillColor=#F5AB50;fontStyle=1;labelBackgroundColor=none;size=90;dashed=1;strokeWidth=3;rounded=1;" parent="f6DiLeIDeS20JckYswjK-1" vertex="1">
          <mxGeometry x="70" y="230" width="220" height="890" as="geometry" />
        </mxCell>
        <mxCell id="f6DiLeIDeS20JckYswjK-44" value="" style="html=1;points=[];perimeter=orthogonalPerimeter;strokeColor=#909090;fontColor=#1A1A1A;fillColor=#F5AB50;rounded=1;" parent="f6DiLeIDeS20JckYswjK-11" vertex="1">
          <mxGeometry x="105" y="300" width="10" height="40" as="geometry" />
        </mxCell>
        <mxCell id="f6DiLeIDeS20JckYswjK-45" value="" style="html=1;points=[];perimeter=orthogonalPerimeter;strokeColor=#909090;fontColor=#1A1A1A;fillColor=#F5AB50;rounded=1;" parent="f6DiLeIDeS20JckYswjK-11" vertex="1">
          <mxGeometry x="105" y="580" width="10" height="80" as="geometry" />
        </mxCell>
        <mxCell id="f6DiLeIDeS20JckYswjK-14" value="钉钉群" style="shape=umlLifeline;perimeter=lifelinePerimeter;whiteSpace=wrap;html=1;container=1;collapsible=0;recursiveResize=0;outlineConnect=0;strokeColor=#909090;fontSize=18;fontColor=#1A1A1A;fillColor=#F5AB50;fontStyle=1;labelBackgroundColor=none;size=90;dashed=1;strokeWidth=3;rounded=1;" parent="f6DiLeIDeS20JckYswjK-1" vertex="1">
          <mxGeometry x="400" y="230" width="220" height="880" as="geometry" />
        </mxCell>
        <mxCell id="f6DiLeIDeS20JckYswjK-47" value="" style="html=1;points=[];perimeter=orthogonalPerimeter;labelBackgroundColor=none;strokeColor=#909090;fontSize=18;fontColor=#1A1A1A;fillColor=#F5AB50;rounded=1;" parent="f6DiLeIDeS20JckYswjK-14" vertex="1">
          <mxGeometry x="105" y="170" width="10" height="80" as="geometry" />
        </mxCell>
        <mxCell id="f6DiLeIDeS20JckYswjK-48" value="推送今日事件" style="html=1;verticalAlign=bottom;endArrow=block;rounded=1;strokeColor=#182E3E;fontColor=#1A1A1A;labelBackgroundColor=#EEEEEE;exitX=1.041;exitY=0.856;exitDx=0;exitDy=0;exitPerimeter=0;" parent="f6DiLeIDeS20JckYswjK-14" source="f6DiLeIDeS20JckYswjK-38" edge="1">
          <mxGeometry x="-0.0188" y="10" width="80" relative="1" as="geometry">
            <mxPoint x="-860" y="190" as="sourcePoint" />
            <mxPoint x="105" y="190" as="targetPoint" />
            <mxPoint as="offset" />
          </mxGeometry>
        </mxCell>
        <object label="内容" 生命线="生命线v0.1" id="f6DiLeIDeS20JckYswjK-33">
          <mxCell parent="0" />
        </object>
        <mxCell id="f6DiLeIDeS20JckYswjK-54" value="查今日事件数据" style="html=1;verticalAlign=bottom;endArrow=block;entryX=0;entryY=0;rounded=1;strokeColor=#182E3E;fontColor=#1A1A1A;exitX=0.956;exitY=0.11;exitDx=0;exitDy=0;exitPerimeter=0;labelBackgroundColor=#EEEEEE;" parent="f6DiLeIDeS20JckYswjK-33" source="f6DiLeIDeS20JckYswjK-35" target="f6DiLeIDeS20JckYswjK-41" edge="1">
          <mxGeometry relative="1" as="geometry">
            <mxPoint x="-790" y="650" as="sourcePoint" />
          </mxGeometry>
        </mxCell>
        <mxCell id="f6DiLeIDeS20JckYswjK-55" value="返回今日事件数据" style="html=1;verticalAlign=bottom;endArrow=open;dashed=1;endSize=8;rounded=1;strokeColor=#182E3E;fontColor=#1A1A1A;entryX=1.053;entryY=0.832;entryDx=0;entryDy=0;entryPerimeter=0;labelBackgroundColor=#EEEEEE;" parent="f6DiLeIDeS20JckYswjK-33" target="f6DiLeIDeS20JckYswjK-35" edge="1">
          <mxGeometry relative="1" as="geometry">
            <mxPoint x="-837" y="726" as="targetPoint" />
            <mxPoint x="-157" y="710" as="sourcePoint" />
          </mxGeometry>
        </mxCell>
        <mxCell id="f6DiLeIDeS20JckYswjK-59" value="查订单统计数据" style="html=1;verticalAlign=bottom;endArrow=block;entryX=0;entryY=0;rounded=1;strokeColor=#182E3E;fontColor=#1A1A1A;exitX=1;exitY=0.125;exitDx=0;exitDy=0;exitPerimeter=0;labelBackgroundColor=#EEEEEE;" parent="f6DiLeIDeS20JckYswjK-33" source="f6DiLeIDeS20JckYswjK-36" target="f6DiLeIDeS20JckYswjK-45" edge="1">
          <mxGeometry relative="1" as="geometry">
            <mxPoint x="-830" y="810" as="sourcePoint" />
          </mxGeometry>
        </mxCell>
        <mxCell id="f6DiLeIDeS20JckYswjK-60" value="返回订单统计数据" style="html=1;verticalAlign=bottom;endArrow=open;dashed=1;endSize=8;exitX=0;exitY=0.95;rounded=1;strokeColor=#182E3E;fontColor=#1A1A1A;labelBackgroundColor=#EEEEEE;entryX=0.998;entryY=0.86;entryDx=0;entryDy=0;entryPerimeter=0;" parent="f6DiLeIDeS20JckYswjK-33" source="f6DiLeIDeS20JckYswjK-45" target="f6DiLeIDeS20JckYswjK-36" edge="1">
          <mxGeometry x="-0.0057" y="-6" relative="1" as="geometry">
            <mxPoint x="-790" y="886" as="targetPoint" />
            <mxPoint as="offset" />
          </mxGeometry>
        </mxCell>
        <mxCell id="f6DiLeIDeS20JckYswjK-61" value="&lt;h1&gt;今日事件&lt;/h1&gt;&lt;p&gt;1、登录&lt;/p&gt;&lt;p&gt;2、手动退出、定时自动退出、异常掉线、异常退出&lt;/p&gt;&lt;p&gt;3、下单失败&lt;/p&gt;" style="text;html=1;strokeColor=none;fillColor=none;spacing=5;spacingTop=-20;whiteSpace=wrap;overflow=hidden;rounded=1;fontColor=#1A1A1A;" parent="f6DiLeIDeS20JckYswjK-33" vertex="1">
          <mxGeometry x="600" y="350" width="210" height="140" as="geometry" />
        </mxCell>
        <mxCell id="f6DiLeIDeS20JckYswjK-62" value="&lt;h1&gt;订单统计监控&lt;/h1&gt;&lt;p&gt;1、统计订单耗时：运营系统通过 endTime-startTime计算&lt;/p&gt;&lt;p&gt;2、统计订单数量：总数、失败总数、各种原因失败的数量，运营系统通过status计算&lt;/p&gt;" style="text;html=1;strokeColor=none;fillColor=none;spacing=5;spacingTop=-20;whiteSpace=wrap;overflow=hidden;rounded=1;fontColor=#1A1A1A;" parent="f6DiLeIDeS20JckYswjK-33" vertex="1">
          <mxGeometry x="600" y="670" width="210" height="140" as="geometry" />
        </mxCell>
        <mxCell id="f6DiLeIDeS20JckYswjK-56" value="推送订单统计数据" style="html=1;verticalAlign=bottom;endArrow=block;entryX=0;entryY=0;rounded=1;strokeColor=#182E3E;fontColor=#1A1A1A;labelBackgroundColor=#EEEEEE;exitX=1.019;exitY=0.004;exitDx=0;exitDy=0;exitPerimeter=0;" parent="f6DiLeIDeS20JckYswjK-33" source="f6DiLeIDeS20JckYswjK-39" target="f6DiLeIDeS20JckYswjK-44" edge="1">
          <mxGeometry relative="1" as="geometry">
            <mxPoint x="-460" y="530" as="sourcePoint" />
            <Array as="points" />
          </mxGeometry>
        </mxCell>
        <mxCell id="f6DiLeIDeS20JckYswjK-63" value="推送今日事件" style="html=1;verticalAlign=bottom;endArrow=block;rounded=1;strokeColor=#182E3E;fontColor=#1A1A1A;labelBackgroundColor=#EEEEEE;exitX=1.041;exitY=0.002;exitDx=0;exitDy=0;exitPerimeter=0;entryX=-0.087;entryY=0.337;entryDx=0;entryDy=0;entryPerimeter=0;" parent="f6DiLeIDeS20JckYswjK-33" source="f6DiLeIDeS20JckYswjK-38" target="f6DiLeIDeS20JckYswjK-42" edge="1">
          <mxGeometry x="-0.0188" y="10" width="80" relative="1" as="geometry">
            <mxPoint x="-460" y="360" as="sourcePoint" />
            <mxPoint x="-170" y="360" as="targetPoint" />
            <Array as="points">
              <mxPoint x="-190" y="360" />
            </Array>
            <mxPoint as="offset" />
          </mxGeometry>
        </mxCell>
      </root>
    </mxGraphModel>
  </diagram>
  <diagram id="pHjsrjgQsub1CLGvduK-" name="机器手监控-旧">
    <mxGraphModel dx="1758" dy="530" grid="1" gridSize="10" guides="1" tooltips="1" connect="1" arrows="1" fold="1" page="1" pageScale="1" pageWidth="827" pageHeight="1169" background="#EEEEEE" math="0" shadow="0">
      <root>
        <mxCell id="0" />
        <mxCell id="1" parent="0" />
        <mxCell id="_ry9WYQS_AX0KuBB-0k1-1" value="银行" style="swimlane;childLayout=stackLayout;horizontal=1;startSize=30;horizontalStack=0;rounded=1;fontSize=14;fontStyle=0;strokeWidth=2;resizeParent=0;resizeLast=1;shadow=0;dashed=0;align=center;" parent="1" vertex="1">
          <mxGeometry x="690" y="430" width="220" height="138" as="geometry" />
        </mxCell>
        <mxCell id="_ry9WYQS_AX0KuBB-0k1-2" value="+ bankCode: string（银行编号）&#xa;+accountId: int （交易账户id）" style="align=left;strokeColor=none;fillColor=none;spacingLeft=4;fontSize=12;verticalAlign=top;resizable=0;rotatable=0;part=1;rounded=1;" parent="_ry9WYQS_AX0KuBB-0k1-1" vertex="1">
          <mxGeometry y="30" width="220" height="108" as="geometry" />
        </mxCell>
        <mxCell id="_ry9WYQS_AX0KuBB-0k1-5" value="流水" style="swimlane;childLayout=stackLayout;horizontal=1;startSize=30;horizontalStack=0;rounded=1;fontSize=14;fontStyle=0;strokeWidth=2;resizeParent=0;resizeLast=1;shadow=0;dashed=0;align=center;" parent="1" vertex="1">
          <mxGeometry x="690" y="600" width="350" height="230" as="geometry" />
        </mxCell>
        <mxCell id="_ry9WYQS_AX0KuBB-0k1-6" value="+serialNumber:0 （流水号）&#xa;+serialNumber：string(流水详情)&#xa;+businessType：0 （流水业务类型）&#xa;+tradeTime:int（流水时间戳,单位：毫秒）&#xa;&#xa;+startTime:int(机器手开始流水抓取时间戳，单位：毫秒)&#xa;+endTime:int(机器手结束流水派去时间戳：单位：毫秒)&#xa;&#xa;ipAddress:string（机器手进行放单的服务IP地址）" style="align=left;strokeColor=none;fillColor=none;spacingLeft=4;fontSize=12;verticalAlign=top;resizable=0;rotatable=0;part=1;rounded=1;" parent="_ry9WYQS_AX0KuBB-0k1-5" vertex="1">
          <mxGeometry y="30" width="350" height="200" as="geometry" />
        </mxCell>
        <mxCell id="KBm1bcrIH9nz3zcgjOdp-1" parent="0" />
        <object label=" 生命线调整" 生命线="生命线v0.1" id="KBm1bcrIH9nz3zcgjOdp-2">
          <mxCell parent="0" />
        </object>
        <mxCell id="KBm1bcrIH9nz3zcgjOdp-3" value="" style="group;rounded=1;" parent="KBm1bcrIH9nz3zcgjOdp-2" vertex="1" connectable="0">
          <mxGeometry x="-818" y="230" width="1488" height="890" as="geometry" />
        </mxCell>
        <mxCell id="KBm1bcrIH9nz3zcgjOdp-4" value="operation系统" style="shape=umlLifeline;perimeter=lifelinePerimeter;whiteSpace=wrap;html=1;container=1;collapsible=0;recursiveResize=0;outlineConnect=0;strokeColor=#909090;fontSize=18;fontColor=#1A1A1A;fillColor=#F5AB50;fontStyle=1;labelBackgroundColor=none;size=90;dashed=1;strokeWidth=3;rounded=1;" parent="KBm1bcrIH9nz3zcgjOdp-3" vertex="1">
          <mxGeometry width="220" height="890" as="geometry" />
        </mxCell>
        <mxCell id="KBm1bcrIH9nz3zcgjOdp-5" value="" style="html=1;points=[];perimeter=orthogonalPerimeter;strokeColor=#909090;fontColor=#1A1A1A;fillColor=#F5AB50;rounded=1;" parent="KBm1bcrIH9nz3zcgjOdp-4" vertex="1">
          <mxGeometry x="105" y="520" width="10" height="90" as="geometry" />
        </mxCell>
        <mxCell id="KBm1bcrIH9nz3zcgjOdp-6" value="" style="html=1;points=[];perimeter=orthogonalPerimeter;strokeColor=#909090;fontColor=#1A1A1A;fillColor=#F5AB50;rounded=1;" parent="KBm1bcrIH9nz3zcgjOdp-4" vertex="1">
          <mxGeometry x="105" y="680" width="10" height="100" as="geometry" />
        </mxCell>
        <mxCell id="KBm1bcrIH9nz3zcgjOdp-7" value="" style="html=1;points=[];perimeter=orthogonalPerimeter;strokeColor=#909090;fontColor=#1A1A1A;fillColor=#F5AB50;rounded=1;" parent="KBm1bcrIH9nz3zcgjOdp-4" vertex="1">
          <mxGeometry x="105" y="390" width="10" height="90" as="geometry" />
        </mxCell>
        <mxCell id="KBm1bcrIH9nz3zcgjOdp-8" value="机器手" style="shape=umlLifeline;perimeter=lifelinePerimeter;whiteSpace=wrap;html=1;container=1;collapsible=0;recursiveResize=0;outlineConnect=0;strokeColor=#909090;fontSize=18;fontColor=#1A1A1A;fillColor=#F5AB50;fontStyle=1;labelBackgroundColor=none;size=90;dashed=1;strokeWidth=3;rounded=1;" parent="KBm1bcrIH9nz3zcgjOdp-3" vertex="1">
          <mxGeometry x="423" width="220" height="890" as="geometry" />
        </mxCell>
        <mxCell id="KBm1bcrIH9nz3zcgjOdp-9" value="" style="html=1;points=[];perimeter=orthogonalPerimeter;strokeColor=#909090;fontColor=#1A1A1A;fillColor=#F5AB50;rounded=1;" parent="KBm1bcrIH9nz3zcgjOdp-8" vertex="1">
          <mxGeometry x="105" y="290" width="10" height="40" as="geometry" />
        </mxCell>
        <mxCell id="KBm1bcrIH9nz3zcgjOdp-10" value="" style="html=1;points=[];perimeter=orthogonalPerimeter;rounded=1;fillColor=#f0a30a;fontColor=#000000;strokeColor=#BD7000;" parent="KBm1bcrIH9nz3zcgjOdp-8" vertex="1">
          <mxGeometry x="105" y="140" width="10" height="60" as="geometry" />
        </mxCell>
        <mxCell id="KBm1bcrIH9nz3zcgjOdp-11" value="mysql" style="shape=umlLifeline;perimeter=lifelinePerimeter;whiteSpace=wrap;html=1;container=1;collapsible=0;recursiveResize=0;outlineConnect=0;strokeColor=#909090;fontSize=18;fontColor=#1A1A1A;fillColor=#F5AB50;fontStyle=1;labelBackgroundColor=none;size=90;dashed=1;strokeWidth=3;rounded=1;" parent="KBm1bcrIH9nz3zcgjOdp-3" vertex="1">
          <mxGeometry x="845" width="220" height="890" as="geometry" />
        </mxCell>
        <mxCell id="KBm1bcrIH9nz3zcgjOdp-12" value="" style="html=1;points=[];perimeter=orthogonalPerimeter;strokeColor=#909090;fontColor=#1A1A1A;fillColor=#F5AB50;rounded=1;" parent="KBm1bcrIH9nz3zcgjOdp-11" vertex="1">
          <mxGeometry x="105" y="290" width="10" height="40" as="geometry" />
        </mxCell>
        <mxCell id="KBm1bcrIH9nz3zcgjOdp-13" value="" style="html=1;points=[];perimeter=orthogonalPerimeter;strokeColor=#909090;fontColor=#1A1A1A;fillColor=#F5AB50;rounded=1;" parent="KBm1bcrIH9nz3zcgjOdp-11" vertex="1">
          <mxGeometry x="105" y="690" width="10" height="80" as="geometry" />
        </mxCell>
        <mxCell id="KBm1bcrIH9nz3zcgjOdp-14" value="" style="html=1;points=[];perimeter=orthogonalPerimeter;strokeColor=#909090;fontColor=#1A1A1A;fillColor=#F5AB50;rounded=1;" parent="KBm1bcrIH9nz3zcgjOdp-11" vertex="1">
          <mxGeometry x="105" y="510" width="10" height="90" as="geometry" />
        </mxCell>
        <mxCell id="KBm1bcrIH9nz3zcgjOdp-16" value="redis" style="shape=umlLifeline;perimeter=lifelinePerimeter;whiteSpace=wrap;html=1;container=1;collapsible=0;recursiveResize=0;outlineConnect=0;strokeColor=#909090;fontSize=18;fontColor=#1A1A1A;fillColor=#F5AB50;fontStyle=1;labelBackgroundColor=none;size=90;dashed=1;strokeWidth=3;rounded=1;" parent="KBm1bcrIH9nz3zcgjOdp-3" vertex="1">
          <mxGeometry x="1268" width="220" height="890" as="geometry" />
        </mxCell>
        <mxCell id="KBm1bcrIH9nz3zcgjOdp-17" value="" style="html=1;points=[];perimeter=orthogonalPerimeter;strokeColor=#909090;fontColor=#1A1A1A;fillColor=#F5AB50;rounded=1;" parent="KBm1bcrIH9nz3zcgjOdp-16" vertex="1">
          <mxGeometry x="105" y="380" width="10" height="90" as="geometry" />
        </mxCell>
        <mxCell id="KBm1bcrIH9nz3zcgjOdp-18" value="" style="html=1;points=[];perimeter=orthogonalPerimeter;rounded=1;fillColor=#f0a30a;fontColor=#000000;strokeColor=#BD7000;" parent="KBm1bcrIH9nz3zcgjOdp-16" vertex="1">
          <mxGeometry x="106" y="140" width="10" height="80" as="geometry" />
        </mxCell>
        <mxCell id="KBm1bcrIH9nz3zcgjOdp-19" value="推送在线负载、负载等机器手事件" style="html=1;verticalAlign=bottom;endArrow=block;exitX=1.045;exitY=0.335;exitDx=0;exitDy=0;exitPerimeter=0;entryX=-0.039;entryY=0.184;entryDx=0;entryDy=0;entryPerimeter=0;rounded=1;" parent="KBm1bcrIH9nz3zcgjOdp-3" edge="1">
          <mxGeometry width="80" relative="1" as="geometry">
            <mxPoint x="538.45" y="156.7500000000001" as="sourcePoint" />
            <mxPoint x="1372.6100000000001" y="156.55999999999995" as="targetPoint" />
          </mxGeometry>
        </mxCell>
        <mxCell id="KBm1bcrIH9nz3zcgjOdp-20" value="查看负载数据" style="html=1;verticalAlign=bottom;endArrow=block;strokeColor=#182E3E;fontColor=#1A1A1A;exitX=0.956;exitY=0.11;exitDx=0;exitDy=0;exitPerimeter=0;labelBackgroundColor=#EEEEEE;entryX=-0.022;entryY=0.226;entryDx=0;entryDy=0;entryPerimeter=0;rounded=1;" parent="KBm1bcrIH9nz3zcgjOdp-3" source="KBm1bcrIH9nz3zcgjOdp-7" target="KBm1bcrIH9nz3zcgjOdp-17" edge="1">
          <mxGeometry relative="1" as="geometry">
            <mxPoint x="43" y="400" as="sourcePoint" />
            <mxPoint x="678" y="395" as="targetPoint" />
          </mxGeometry>
        </mxCell>
        <mxCell id="KBm1bcrIH9nz3zcgjOdp-21" value="返回负载数据" style="html=1;verticalAlign=bottom;endArrow=open;dashed=1;endSize=8;strokeColor=#182E3E;fontColor=#1A1A1A;entryX=1.053;entryY=0.832;entryDx=0;entryDy=0;entryPerimeter=0;labelBackgroundColor=#EEEEEE;exitX=-0.089;exitY=0.949;exitDx=0;exitDy=0;exitPerimeter=0;rounded=1;" parent="KBm1bcrIH9nz3zcgjOdp-3" source="KBm1bcrIH9nz3zcgjOdp-17" target="KBm1bcrIH9nz3zcgjOdp-7" edge="1">
          <mxGeometry x="0.0077" y="-5" relative="1" as="geometry">
            <mxPoint x="-4" y="476" as="targetPoint" />
            <mxPoint x="676" y="460" as="sourcePoint" />
            <mxPoint as="offset" />
          </mxGeometry>
        </mxCell>
        <mxCell id="KBm1bcrIH9nz3zcgjOdp-22" value="返回流水对账数据" style="html=1;verticalAlign=bottom;endArrow=open;dashed=1;endSize=8;exitX=0;exitY=0.95;strokeColor=#182E3E;fontColor=#1A1A1A;labelBackgroundColor=#EEEEEE;entryX=0.998;entryY=0.86;entryDx=0;entryDy=0;entryPerimeter=0;rounded=1;" parent="KBm1bcrIH9nz3zcgjOdp-3" source="KBm1bcrIH9nz3zcgjOdp-13" target="KBm1bcrIH9nz3zcgjOdp-6" edge="1">
          <mxGeometry x="-0.0151" y="-6" relative="1" as="geometry">
            <mxPoint x="-790" y="996" as="targetPoint" />
            <mxPoint as="offset" />
          </mxGeometry>
        </mxCell>
        <mxCell id="KBm1bcrIH9nz3zcgjOdp-23" value="查流水对账数据" style="html=1;verticalAlign=bottom;endArrow=block;entryX=0;entryY=0;strokeColor=#182E3E;fontColor=#1A1A1A;exitX=1;exitY=0.125;exitDx=0;exitDy=0;exitPerimeter=0;labelBackgroundColor=#EEEEEE;rounded=1;" parent="KBm1bcrIH9nz3zcgjOdp-3" source="KBm1bcrIH9nz3zcgjOdp-6" target="KBm1bcrIH9nz3zcgjOdp-13" edge="1">
          <mxGeometry relative="1" as="geometry">
            <mxPoint x="-830" y="920" as="sourcePoint" />
          </mxGeometry>
        </mxCell>
        <mxCell id="KBm1bcrIH9nz3zcgjOdp-24" value="返回订单事件数据" style="html=1;verticalAlign=bottom;endArrow=open;dashed=1;endSize=8;strokeColor=#182E3E;fontColor=#1A1A1A;entryX=1.053;entryY=0.832;entryDx=0;entryDy=0;entryPerimeter=0;labelBackgroundColor=#EEEEEE;exitX=-0.089;exitY=0.949;exitDx=0;exitDy=0;exitPerimeter=0;rounded=1;" parent="KBm1bcrIH9nz3zcgjOdp-3" source="KBm1bcrIH9nz3zcgjOdp-14" target="KBm1bcrIH9nz3zcgjOdp-5" edge="1">
          <mxGeometry x="0.0077" y="-5" relative="1" as="geometry">
            <mxPoint x="-837" y="836" as="targetPoint" />
            <mxPoint x="-157" y="820" as="sourcePoint" />
            <mxPoint as="offset" />
          </mxGeometry>
        </mxCell>
        <mxCell id="KBm1bcrIH9nz3zcgjOdp-25" value="查订单事件数据" style="html=1;verticalAlign=bottom;endArrow=block;strokeColor=#182E3E;fontColor=#1A1A1A;exitX=0.956;exitY=0.11;exitDx=0;exitDy=0;exitPerimeter=0;labelBackgroundColor=#EEEEEE;entryX=-0.022;entryY=0.226;entryDx=0;entryDy=0;entryPerimeter=0;rounded=1;" parent="KBm1bcrIH9nz3zcgjOdp-3" source="KBm1bcrIH9nz3zcgjOdp-5" target="KBm1bcrIH9nz3zcgjOdp-14" edge="1">
          <mxGeometry relative="1" as="geometry">
            <mxPoint x="-790" y="760" as="sourcePoint" />
            <mxPoint x="-155" y="755" as="targetPoint" />
          </mxGeometry>
        </mxCell>
        <mxCell id="2TuUhFtBE7Oa3AV1nFuk-1" value="" style="group;rounded=1;" vertex="1" connectable="0" parent="KBm1bcrIH9nz3zcgjOdp-3">
          <mxGeometry width="1488" height="890" as="geometry" />
        </mxCell>
        <mxCell id="2TuUhFtBE7Oa3AV1nFuk-2" value="operation系统" style="shape=umlLifeline;perimeter=lifelinePerimeter;whiteSpace=wrap;html=1;container=1;collapsible=0;recursiveResize=0;outlineConnect=0;strokeColor=#909090;fontSize=18;fontColor=#1A1A1A;fillColor=#F5AB50;fontStyle=1;labelBackgroundColor=none;size=90;dashed=1;strokeWidth=3;rounded=1;" vertex="1" parent="2TuUhFtBE7Oa3AV1nFuk-1">
          <mxGeometry width="220" height="890" as="geometry" />
        </mxCell>
        <mxCell id="2TuUhFtBE7Oa3AV1nFuk-3" value="" style="html=1;points=[];perimeter=orthogonalPerimeter;strokeColor=#909090;fontColor=#1A1A1A;fillColor=#F5AB50;rounded=1;" vertex="1" parent="2TuUhFtBE7Oa3AV1nFuk-2">
          <mxGeometry x="105" y="520" width="10" height="90" as="geometry" />
        </mxCell>
        <mxCell id="2TuUhFtBE7Oa3AV1nFuk-4" value="" style="html=1;points=[];perimeter=orthogonalPerimeter;strokeColor=#909090;fontColor=#1A1A1A;fillColor=#F5AB50;rounded=1;" vertex="1" parent="2TuUhFtBE7Oa3AV1nFuk-2">
          <mxGeometry x="105" y="680" width="10" height="100" as="geometry" />
        </mxCell>
        <mxCell id="2TuUhFtBE7Oa3AV1nFuk-5" value="" style="html=1;points=[];perimeter=orthogonalPerimeter;strokeColor=#909090;fontColor=#1A1A1A;fillColor=#F5AB50;rounded=1;" vertex="1" parent="2TuUhFtBE7Oa3AV1nFuk-2">
          <mxGeometry x="105" y="390" width="10" height="90" as="geometry" />
        </mxCell>
        <mxCell id="2TuUhFtBE7Oa3AV1nFuk-6" value="机器手" style="shape=umlLifeline;perimeter=lifelinePerimeter;whiteSpace=wrap;html=1;container=1;collapsible=0;recursiveResize=0;outlineConnect=0;strokeColor=#909090;fontSize=18;fontColor=#1A1A1A;fillColor=#F5AB50;fontStyle=1;labelBackgroundColor=none;size=90;dashed=1;strokeWidth=3;rounded=1;" vertex="1" parent="2TuUhFtBE7Oa3AV1nFuk-1">
          <mxGeometry x="423" width="220" height="890" as="geometry" />
        </mxCell>
        <mxCell id="2TuUhFtBE7Oa3AV1nFuk-7" value="" style="html=1;points=[];perimeter=orthogonalPerimeter;strokeColor=#909090;fontColor=#1A1A1A;fillColor=#F5AB50;rounded=1;" vertex="1" parent="2TuUhFtBE7Oa3AV1nFuk-6">
          <mxGeometry x="105" y="250" width="10" height="80" as="geometry" />
        </mxCell>
        <mxCell id="2TuUhFtBE7Oa3AV1nFuk-8" value="" style="html=1;points=[];perimeter=orthogonalPerimeter;rounded=1;fillColor=#f0a30a;fontColor=#000000;strokeColor=#BD7000;" vertex="1" parent="2TuUhFtBE7Oa3AV1nFuk-6">
          <mxGeometry x="105" y="140" width="10" height="60" as="geometry" />
        </mxCell>
        <mxCell id="2TuUhFtBE7Oa3AV1nFuk-9" value="mysql" style="shape=umlLifeline;perimeter=lifelinePerimeter;whiteSpace=wrap;html=1;container=1;collapsible=0;recursiveResize=0;outlineConnect=0;strokeColor=#909090;fontSize=18;fontColor=#1A1A1A;fillColor=#F5AB50;fontStyle=1;labelBackgroundColor=none;size=90;dashed=1;strokeWidth=3;rounded=1;" vertex="1" parent="2TuUhFtBE7Oa3AV1nFuk-1">
          <mxGeometry x="845" width="220" height="890" as="geometry" />
        </mxCell>
        <mxCell id="2TuUhFtBE7Oa3AV1nFuk-11" value="" style="html=1;points=[];perimeter=orthogonalPerimeter;strokeColor=#909090;fontColor=#1A1A1A;fillColor=#F5AB50;rounded=1;" vertex="1" parent="2TuUhFtBE7Oa3AV1nFuk-9">
          <mxGeometry x="105" y="690" width="10" height="80" as="geometry" />
        </mxCell>
        <mxCell id="2TuUhFtBE7Oa3AV1nFuk-12" value="" style="html=1;points=[];perimeter=orthogonalPerimeter;strokeColor=#909090;fontColor=#1A1A1A;fillColor=#F5AB50;rounded=1;" vertex="1" parent="2TuUhFtBE7Oa3AV1nFuk-9">
          <mxGeometry x="105" y="510" width="10" height="90" as="geometry" />
        </mxCell>
        <mxCell id="2TuUhFtBE7Oa3AV1nFuk-14" value="redis" style="shape=umlLifeline;perimeter=lifelinePerimeter;whiteSpace=wrap;html=1;container=1;collapsible=0;recursiveResize=0;outlineConnect=0;strokeColor=#909090;fontSize=18;fontColor=#1A1A1A;fillColor=#F5AB50;fontStyle=1;labelBackgroundColor=none;size=90;dashed=1;strokeWidth=3;rounded=1;" vertex="1" parent="2TuUhFtBE7Oa3AV1nFuk-1">
          <mxGeometry x="1268" width="220" height="890" as="geometry" />
        </mxCell>
        <mxCell id="2TuUhFtBE7Oa3AV1nFuk-15" value="" style="html=1;points=[];perimeter=orthogonalPerimeter;strokeColor=#909090;fontColor=#1A1A1A;fillColor=#F5AB50;rounded=1;" vertex="1" parent="2TuUhFtBE7Oa3AV1nFuk-14">
          <mxGeometry x="105" y="380" width="10" height="90" as="geometry" />
        </mxCell>
        <mxCell id="2TuUhFtBE7Oa3AV1nFuk-16" value="" style="html=1;points=[];perimeter=orthogonalPerimeter;rounded=1;fillColor=#f0a30a;fontColor=#000000;strokeColor=#BD7000;" vertex="1" parent="2TuUhFtBE7Oa3AV1nFuk-14">
          <mxGeometry x="106" y="140" width="10" height="80" as="geometry" />
        </mxCell>
        <mxCell id="2TuUhFtBE7Oa3AV1nFuk-17" value="推送在线负载、负载等机器手事件" style="html=1;verticalAlign=bottom;endArrow=block;exitX=1.045;exitY=0.335;exitDx=0;exitDy=0;exitPerimeter=0;entryX=-0.039;entryY=0.184;entryDx=0;entryDy=0;entryPerimeter=0;rounded=1;" edge="1" parent="2TuUhFtBE7Oa3AV1nFuk-1">
          <mxGeometry width="80" relative="1" as="geometry">
            <mxPoint x="538.45" y="156.7500000000001" as="sourcePoint" />
            <mxPoint x="1372.6100000000001" y="156.55999999999995" as="targetPoint" />
          </mxGeometry>
        </mxCell>
        <mxCell id="2TuUhFtBE7Oa3AV1nFuk-18" value="查看负载数据" style="html=1;verticalAlign=bottom;endArrow=block;strokeColor=#182E3E;fontColor=#1A1A1A;exitX=0.956;exitY=0.11;exitDx=0;exitDy=0;exitPerimeter=0;labelBackgroundColor=#EEEEEE;entryX=-0.022;entryY=0.226;entryDx=0;entryDy=0;entryPerimeter=0;rounded=1;" edge="1" parent="2TuUhFtBE7Oa3AV1nFuk-1" source="2TuUhFtBE7Oa3AV1nFuk-5" target="2TuUhFtBE7Oa3AV1nFuk-15">
          <mxGeometry relative="1" as="geometry">
            <mxPoint x="43" y="400" as="sourcePoint" />
            <mxPoint x="678" y="395" as="targetPoint" />
          </mxGeometry>
        </mxCell>
        <mxCell id="2TuUhFtBE7Oa3AV1nFuk-19" value="返回负载数据" style="html=1;verticalAlign=bottom;endArrow=open;dashed=1;endSize=8;strokeColor=#182E3E;fontColor=#1A1A1A;entryX=1.053;entryY=0.832;entryDx=0;entryDy=0;entryPerimeter=0;labelBackgroundColor=#EEEEEE;exitX=-0.089;exitY=0.949;exitDx=0;exitDy=0;exitPerimeter=0;rounded=1;" edge="1" parent="2TuUhFtBE7Oa3AV1nFuk-1" source="2TuUhFtBE7Oa3AV1nFuk-15" target="2TuUhFtBE7Oa3AV1nFuk-5">
          <mxGeometry x="0.0077" y="-5" relative="1" as="geometry">
            <mxPoint x="-4" y="476" as="targetPoint" />
            <mxPoint x="676" y="460" as="sourcePoint" />
            <mxPoint as="offset" />
          </mxGeometry>
        </mxCell>
        <mxCell id="2TuUhFtBE7Oa3AV1nFuk-20" value="返回流水对账数据" style="html=1;verticalAlign=bottom;endArrow=open;dashed=1;endSize=8;exitX=0;exitY=0.95;strokeColor=#182E3E;fontColor=#1A1A1A;labelBackgroundColor=#EEEEEE;entryX=0.998;entryY=0.86;entryDx=0;entryDy=0;entryPerimeter=0;rounded=1;" edge="1" parent="2TuUhFtBE7Oa3AV1nFuk-1" source="2TuUhFtBE7Oa3AV1nFuk-11" target="2TuUhFtBE7Oa3AV1nFuk-4">
          <mxGeometry x="-0.0151" y="-6" relative="1" as="geometry">
            <mxPoint x="-790" y="996" as="targetPoint" />
            <mxPoint as="offset" />
          </mxGeometry>
        </mxCell>
        <mxCell id="2TuUhFtBE7Oa3AV1nFuk-21" value="查流水对账数据" style="html=1;verticalAlign=bottom;endArrow=block;entryX=0;entryY=0;strokeColor=#182E3E;fontColor=#1A1A1A;exitX=1;exitY=0.125;exitDx=0;exitDy=0;exitPerimeter=0;labelBackgroundColor=#EEEEEE;rounded=1;" edge="1" parent="2TuUhFtBE7Oa3AV1nFuk-1" source="2TuUhFtBE7Oa3AV1nFuk-4" target="2TuUhFtBE7Oa3AV1nFuk-11">
          <mxGeometry relative="1" as="geometry">
            <mxPoint x="-830" y="920" as="sourcePoint" />
          </mxGeometry>
        </mxCell>
        <mxCell id="2TuUhFtBE7Oa3AV1nFuk-22" value="返回订单事件数据" style="html=1;verticalAlign=bottom;endArrow=open;dashed=1;endSize=8;strokeColor=#182E3E;fontColor=#1A1A1A;entryX=1.053;entryY=0.832;entryDx=0;entryDy=0;entryPerimeter=0;labelBackgroundColor=#EEEEEE;exitX=-0.089;exitY=0.949;exitDx=0;exitDy=0;exitPerimeter=0;rounded=1;" edge="1" parent="2TuUhFtBE7Oa3AV1nFuk-1" source="2TuUhFtBE7Oa3AV1nFuk-12" target="2TuUhFtBE7Oa3AV1nFuk-3">
          <mxGeometry x="0.0077" y="-5" relative="1" as="geometry">
            <mxPoint x="-837" y="836" as="targetPoint" />
            <mxPoint x="-157" y="820" as="sourcePoint" />
            <mxPoint as="offset" />
          </mxGeometry>
        </mxCell>
        <mxCell id="2TuUhFtBE7Oa3AV1nFuk-23" value="查订单事件数据" style="html=1;verticalAlign=bottom;endArrow=block;strokeColor=#182E3E;fontColor=#1A1A1A;exitX=0.956;exitY=0.11;exitDx=0;exitDy=0;exitPerimeter=0;labelBackgroundColor=#EEEEEE;entryX=-0.022;entryY=0.226;entryDx=0;entryDy=0;entryPerimeter=0;rounded=1;" edge="1" parent="2TuUhFtBE7Oa3AV1nFuk-1" source="2TuUhFtBE7Oa3AV1nFuk-3" target="2TuUhFtBE7Oa3AV1nFuk-12">
          <mxGeometry relative="1" as="geometry">
            <mxPoint x="-790" y="760" as="sourcePoint" />
            <mxPoint x="-155" y="755" as="targetPoint" />
          </mxGeometry>
        </mxCell>
        <mxCell id="2TuUhFtBE7Oa3AV1nFuk-10" value="" style="html=1;points=[];perimeter=orthogonalPerimeter;strokeColor=#909090;fontColor=#1A1A1A;fillColor=#F5AB50;rounded=1;" vertex="1" parent="2TuUhFtBE7Oa3AV1nFuk-1">
          <mxGeometry x="950" y="250" width="10" height="80" as="geometry" />
        </mxCell>
        <mxCell id="2TuUhFtBE7Oa3AV1nFuk-72" value="&lt;span style=&quot;background-color: rgb(238, 238, 238);&quot;&gt;推送银行原始API信息:机器手网关通信消息表（目前只有：盈透和富途）&lt;/span&gt;" style="html=1;verticalAlign=bottom;endArrow=block;rounded=0;" edge="1" parent="2TuUhFtBE7Oa3AV1nFuk-1">
          <mxGeometry width="80" relative="1" as="geometry">
            <mxPoint x="538" y="260" as="sourcePoint" />
            <mxPoint x="948" y="260" as="targetPoint" />
          </mxGeometry>
        </mxCell>
        <mxCell id="KBm1bcrIH9nz3zcgjOdp-15" value="推送流水对账数据：机器手流水对账表" style="html=1;verticalAlign=bottom;endArrow=block;strokeColor=#182E3E;fontColor=#1A1A1A;labelBackgroundColor=#EEEEEE;rounded=1;" parent="2TuUhFtBE7Oa3AV1nFuk-1" edge="1">
          <mxGeometry relative="1" as="geometry">
            <mxPoint x="538" y="320" as="sourcePoint" />
            <Array as="points" />
            <mxPoint x="948" y="320" as="targetPoint" />
          </mxGeometry>
        </mxCell>
        <object label="内容" 生命线="生命线v0.1" id="KBm1bcrIH9nz3zcgjOdp-26">
          <mxCell parent="0" />
        </object>
        <mxCell id="KBm1bcrIH9nz3zcgjOdp-27" value="推送订单事件数据:机器手订单监控表" style="html=1;verticalAlign=bottom;endArrow=block;entryX=0;entryY=0;strokeColor=#182E3E;fontColor=#1A1A1A;labelBackgroundColor=#EEEEEE;rounded=1;" parent="KBm1bcrIH9nz3zcgjOdp-26" target="KBm1bcrIH9nz3zcgjOdp-12" edge="1">
          <mxGeometry relative="1" as="geometry">
            <mxPoint x="-280" y="520" as="sourcePoint" />
            <Array as="points" />
          </mxGeometry>
        </mxCell>
      </root>
    </mxGraphModel>
  </diagram>
</mxfile>
